<svg width="108" height="108" viewBox="0 0 108 108" fill="none" xmlns="http://www.w3.org/2000/svg">
<path d="M54 37.6667V103M54 37.6667C49.6681 37.6667 45.5137 35.9458 42.4506 32.8827C39.3875 29.8197 37.6667 25.6652 37.6667 21.3333C37.6667 17.0015 39.3875 12.847 42.4506 9.78392C45.5137 6.72083 49.6681 5 54 5C58.3319 5 62.4863 6.72083 65.5494 9.78392C68.6125 12.847 70.3333 17.0015 70.3333 21.3333C70.3333 25.6652 68.6125 29.8197 65.5494 32.8827C62.4863 35.9458 58.3319 37.6667 54 37.6667ZM54 103C42.4483 103 31.3698 98.4111 23.2016 90.2429C15.0333 82.0746 10.4444 70.9961 10.4444 59.4444M54 103C65.5517 103 76.6302 98.4111 84.7984 90.2429C92.9667 82.0746 97.5556 70.9961 97.5556 59.4444M103 59.4444H92.1111M15.8889 59.4444H5" stroke="#00D3D3" stroke-width="10" stroke-linecap="round" stroke-linejoin="round"/>
</svg>
