<svg width="142" height="142" viewBox="0 0 142 142" fill="none" xmlns="http://www.w3.org/2000/svg">
<path d="M0 10.172C0 4.55566 4.69798 0 10.4935 0H131.506C137.302 0 142 4.55566 142 10.172V131.828C142 137.446 137.302 142 131.506 142H10.4935C4.69798 142 0 137.446 0 131.828V10.172Z" fill="#1877F2"/>
<path d="M108.295 92.0316L111.443 71.3814H91.7516V57.9866C91.7516 52.3371 94.5028 46.8244 103.322 46.8244H112.275V29.2438C112.275 29.2438 104.15 27.8485 96.3818 27.8485C80.1642 27.8485 69.5641 37.7383 69.5641 55.6426V71.3814H51.5367V92.0316H69.5641V141.952C76.9154 142.024 84.4007 142.008 91.7516 141.952V92.0316H108.295Z" fill="white"/>
</svg>
