<svg width="142" height="142" viewBox="0 0 142 142" fill="none" xmlns="http://www.w3.org/2000/svg">
<path d="M71.0232 0C41.3813 0 32.7122 0.0305872 31.0271 0.170414C24.9441 0.676196 21.1589 1.63423 17.0351 3.68794C13.8571 5.26646 11.3507 7.09623 8.87709 9.66119C4.37217 14.3388 1.64192 20.0936 0.653563 26.9342C0.173038 30.2551 0.0332484 30.9324 0.00485379 47.8952C-0.00606723 53.5495 0.00485379 60.9909 0.00485379 70.9722C0.00485379 100.598 0.0376169 109.261 0.17959 110.943C0.671036 116.864 1.59932 120.589 3.56511 124.664C7.32194 132.463 14.4971 138.319 22.9499 140.503C25.8768 141.257 29.1094 141.672 33.2594 141.869C35.0177 141.945 52.939 142 70.8714 142C88.8037 142 106.736 141.978 108.451 141.891C113.256 141.665 116.046 141.29 119.131 140.492C123.323 139.417 127.229 137.44 130.577 134.698C133.925 131.957 136.635 128.517 138.516 124.62C140.444 120.644 141.421 116.776 141.863 111.165C141.96 109.941 142 90.4344 142 70.9536C142 51.4695 141.956 31.9986 141.86 30.7751C141.412 25.0728 140.435 21.2384 138.445 17.1856C136.812 13.868 135 11.3905 132.368 8.85718C127.672 4.3696 121.927 1.6386 115.081 0.651071C111.764 0.171507 111.103 0.0294948 94.1321 0H71.0232Z" fill="url(#paint0_radial_7_426)"/>
<path d="M71.0033 17.75C56.5415 17.75 54.7266 17.8132 49.0466 18.0717C43.3777 18.3313 39.5082 19.2288 36.1224 20.5456C32.6201 21.9057 29.6492 23.7251 26.6893 26.686C23.7273 29.6458 21.9079 32.6167 20.5434 36.1179C19.2232 39.5048 18.3247 43.3755 18.0695 49.0421C17.8166 54.7221 17.75 56.5382 17.75 71C17.75 85.4618 17.8143 87.2712 18.0717 92.9512C18.3324 98.6201 19.2299 102.49 20.5456 105.875C21.9068 109.378 23.7262 112.349 26.6871 115.308C29.6458 118.27 32.6167 120.094 36.1168 121.454C39.5048 122.771 43.3755 123.669 49.0433 123.928C54.7233 124.187 56.5371 124.25 70.9978 124.25C85.4607 124.25 87.2701 124.187 92.9501 123.928C98.619 123.669 102.493 122.771 105.881 121.454C109.382 120.094 112.349 118.27 115.307 115.308C118.269 112.349 120.089 109.378 121.453 105.877C122.762 102.49 123.661 98.619 123.927 92.9523C124.182 87.2723 124.249 85.4618 124.249 71C124.249 56.5382 124.182 54.7233 123.927 49.0433C123.661 43.3743 122.762 39.5048 121.453 36.119C120.089 32.6167 118.269 29.6458 115.307 26.686C112.345 23.724 109.383 21.9046 105.878 20.5456C102.483 19.2288 98.6112 18.3313 92.9423 18.0717C87.2623 17.8132 85.454 17.75 70.9878 17.75H71.0033ZM66.2264 27.3461C67.6441 27.3439 69.2261 27.3461 71.0033 27.3461C85.2211 27.3461 86.9062 27.3971 92.5208 27.6523C97.7126 27.8897 100.53 28.7572 102.408 29.4861C104.893 30.4512 106.664 31.605 108.527 33.4687C110.391 35.3325 111.544 37.1075 112.512 39.5925C113.241 41.4673 114.109 44.2851 114.345 49.477C114.601 55.0905 114.656 56.7767 114.656 70.9878C114.656 85.1989 114.601 86.8851 114.345 92.4986C114.108 97.6905 113.241 100.508 112.512 102.383C111.547 104.868 110.391 106.638 108.527 108.5C106.663 110.364 104.894 111.518 102.408 112.483C100.533 113.215 97.7126 114.08 92.5208 114.318C86.9073 114.573 85.2211 114.628 71.0033 114.628C56.7845 114.628 55.0993 114.573 49.4859 114.318C44.294 114.078 41.4762 113.211 39.598 112.482C37.113 111.517 35.338 110.363 33.4743 108.499C31.6105 106.635 30.4568 104.865 29.4894 102.379C28.7605 100.504 27.8919 97.686 27.6556 92.4941C27.4005 86.8807 27.3494 85.1945 27.3494 70.9745C27.3494 56.7545 27.4005 55.0771 27.6556 49.4637C27.893 44.2718 28.7605 41.454 29.4894 39.577C30.4546 37.092 31.6105 35.317 33.4743 33.4532C35.338 31.5895 37.113 30.4357 39.598 29.4683C41.4751 28.7361 44.294 27.8708 49.4859 27.6323C54.3982 27.4104 56.3019 27.3439 66.2264 27.3328V27.3461ZM99.4277 36.1878C98.1638 36.1878 96.9283 36.5626 95.8774 37.2649C94.8265 37.9671 94.0075 38.9652 93.5239 40.133C93.0404 41.3007 92.9139 42.5857 93.1607 43.8253C93.4074 45.0649 94.0162 46.2034 94.9101 47.097C95.804 47.9906 96.9428 48.599 98.1825 48.8453C99.4221 49.0916 100.707 48.9648 101.875 48.4808C103.042 47.9968 104.04 47.1774 104.742 46.1263C105.444 45.0752 105.818 43.8395 105.818 42.5756C105.818 39.0478 102.956 36.1856 99.4277 36.1856V36.1878ZM71.0033 43.6539C55.9014 43.6539 43.6572 55.8981 43.6572 71C43.6572 86.1019 55.9014 98.3405 71.0033 98.3405C86.1052 98.3405 98.3461 86.1019 98.3461 71C98.3461 55.8981 86.1052 43.6539 71.0033 43.6539ZM71.0033 53.25C80.8058 53.25 88.7533 61.1965 88.7533 71C88.7533 80.8024 80.8058 88.75 71.0033 88.75C61.1998 88.75 53.2533 80.8024 53.2533 71C53.2533 61.1965 61.1998 53.25 71.0033 53.25Z" fill="white"/>
<defs>
<radialGradient id="paint0_radial_7_426" cx="0" cy="0" r="1" gradientUnits="userSpaceOnUse" gradientTransform="translate(37.7189 152.937) rotate(-90) scale(140.732 130.892)">
<stop stop-color="#FFDD55"/>
<stop offset="0.1" stop-color="#FFDD55"/>
<stop offset="0.5" stop-color="#FF543E"/>
<stop offset="1" stop-color="#C837AB"/>
</radialGradient>
</defs>
</svg>
