<svg width="45" height="45" viewBox="0 0 45 45" fill="none" xmlns="http://www.w3.org/2000/svg">
<circle cx="22.5" cy="22.5" r="22.5" fill="#00D3D3"/>
<path fill-rule="evenodd" clip-rule="evenodd" d="M21.775 24.0298V23.791C21.509 21.0887 19.15 18.875 16.275 18.875C13.221 18.875 10.75 21.3724 10.75 24.3C10.75 27.2058 13.184 29.6878 16.207 29.7246C17.997 29.7074 19.654 29.1524 21.284 28.0733L21.282 28.0715L24.34 25.9718L24.339 25.9698C28.302 23.2391 33.65 23.9816 36.292 27.7687C36.309 27.7935 36.325 27.8189 36.341 27.8449L36.371 27.8932L36.419 27.9718L36.42 27.9723L36.421 27.9737C36.495 28.0933 36.597 28.2579 36.667 28.3792C36.766 28.5484 36.909 28.8069 37.006 29.0921L37.034 29.1713C37.081 29.3046 37.037 29.392 36.901 29.4335L34.739 30.0968C34.619 30.1333 34.464 30.0663 34.396 29.9586L34.398 29.9662L34.4 29.9719L34.395 29.96L34.39 29.9479L34.385 29.9398L34.381 29.9305L34.377 29.9206C34.357 29.8796 34.328 29.8269 34.29 29.7608C34.248 29.6891 34.202 29.6132 34.149 29.5285L34.116 29.4758L34.071 29.4033L34.041 29.355L34.013 29.3086C32.35 26.9652 28.87 26.2999 26.054 28.131L26.056 28.1335L22.996 30.2339L22.997 30.2348C22.951 30.266 22.906 30.2969 22.86 30.3275L22.84 30.3409C20.834 31.6782 18.668 32.4425 16.275 32.474C16.251 32.474 16.228 32.4749 16.204 32.4747L16.121 32.475V32.4736C11.644 32.391 8 28.7218 8 24.3C8 19.8277 11.728 16.125 16.275 16.125C18.38 16.125 20.309 16.9187 21.775 18.215V10.5V9.5C21.775 9.2 21.975 9 22.275 9H24.275C24.575 9 24.775 9.2 24.775 9.5V10.5V22.1V24.3H24.773V24.5391C24.773 24.6592 24.688 24.7623 24.57 24.7847L22.071 25.2584C21.917 25.2875 21.774 25.1695 21.774 25.0127V24.0385C21.774 24.0355 21.774 24.0326 21.775 24.0298Z" fill="white"/>
</svg>
