<svg width="142" height="142" viewBox="0 0 142 142" fill="none" xmlns="http://www.w3.org/2000/svg">
<path d="M0 10.172C0 4.55566 4.69798 0 10.4935 0H131.506C137.302 0 142 4.55566 142 10.172V131.828C142 137.446 137.302 142 131.506 142H10.4935C4.69798 142 0 137.446 0 131.828V10.172Z" fill="#006699"/>
<path fill-rule="evenodd" clip-rule="evenodd" d="M46.2148 118.333V54.4587H24.6531V118.333H46.2148ZM35.4338 45.7376C42.9528 45.7376 47.6328 40.8328 47.6328 34.7031C47.4927 28.4355 42.9529 23.6667 35.5765 23.6667C28.2009 23.6667 23.3785 28.4355 23.3785 34.7031C23.3785 40.8328 28.0574 45.7376 35.2933 45.7376H35.4338Z" fill="white"/>
<path fill-rule="evenodd" clip-rule="evenodd" d="M57.8854 118.333H79.447V82.663C79.447 80.754 79.5871 78.8469 80.1564 77.4822C81.7151 73.6679 85.2629 69.7176 91.2194 69.7176C99.0215 69.7176 102.143 75.5751 102.143 84.1619V118.333H123.702V81.7085C123.702 62.0891 113.065 52.9598 98.8791 52.9598C87.2472 52.9598 82.1407 59.3616 79.3035 63.7221H79.4475V54.4587H57.886C58.169 60.4522 57.8854 118.333 57.8854 118.333Z" fill="white"/>
</svg>
