<svg width="101" height="24" viewBox="0 0 101 24" fill="none" xmlns="http://www.w3.org/2000/svg">
<path fill-rule="evenodd" clip-rule="evenodd" d="M13.9726 0C13.6965 0 13.4726 0.2239 13.4726 0.5V8.476C12.0458 7.2608 10.1961 6.5274 8.175 6.5274C3.6601 6.5274 0 10.1875 0 14.7024C0 19.2174 3.6601 22.8774 8.175 22.8774C10.1961 22.8774 12.0458 22.144 13.4726 20.9289V22.3634C13.4726 22.6395 13.6965 22.8634 13.9726 22.8634H15.9732C16.2493 22.8634 16.4732 22.6395 16.4732 22.3634V17.8543V11.5506V0.5C16.4732 0.2239 16.2493 0 15.9732 0H13.9726ZM22.2283 14.6867C22.2283 11.6906 24.6572 9.2617 27.6533 9.2617C30.6495 9.2617 33.0783 11.6906 33.0783 14.6867C33.0783 17.6828 30.6495 20.1117 27.6533 20.1117C24.6572 20.1117 22.2283 17.6828 22.2283 14.6867ZM27.6533 6.5117C23.1384 6.5117 19.4783 10.1718 19.4783 14.6867C19.4783 19.2016 23.1384 22.8617 27.6533 22.8617C32.1683 22.8617 35.8283 19.2016 35.8283 14.6867C35.8283 10.1718 32.1683 6.5117 27.6533 6.5117ZM50.819 10.9168C48.65 8.9406 45.373 8.9773 43.245 11.0271C41.106 13.0863 41.106 16.4871 43.245 18.5463C45.412 20.6334 48.833 20.6178 50.889 18.5938L50.969 18.5136C51.071 18.4109 51.173 18.4109 51.275 18.5136L52.908 20.1568C53.01 20.2595 53.01 20.3622 52.908 20.4649L52.806 20.5676C52.796 20.5782 52.785 20.5877 52.775 20.5961C49.62 23.6551 44.529 23.6011 41.337 20.5271C38.076 17.3863 38.076 12.1871 41.337 9.0463C44.516 5.9848 49.447 5.9344 52.684 8.895C52.701 8.906 52.718 8.92 52.735 8.9369L52.835 9.0362C52.936 9.1355 52.939 9.2373 52.843 9.3416L51.317 11.0108C51.222 11.1152 51.025 11.1202 50.925 11.0209L50.824 10.9216L50.819 10.9168ZM8.175 9.2774C5.1789 9.2774 2.7501 11.7063 2.7501 14.7024C2.7501 17.6986 5.1789 20.1274 8.175 20.1274C11.1712 20.1274 13.6001 17.6986 13.6001 14.7024C13.6001 11.7063 11.1712 9.2774 8.175 9.2774ZM59.002 13.8653V0.5C59.002 0.2 58.802 0 58.502 0H56.502C56.202 0 56.002 0.2 56.002 0.5V22.4C56.002 22.7 56.202 22.9 56.502 22.9H58.502C58.802 22.9 59.002 22.7 59.002 22.4V19.2592C59.035 19.0355 59.088 18.8047 59.168 18.5817C59.267 18.3465 59.393 18.1169 59.531 17.901L61.055 16.2085L65.993 22.5512H65.995C66.125 22.7648 66.367 22.9064 66.61 22.8994L69.423 22.9025C69.675 22.9322 69.77 22.6405 69.621 22.4902L69.622 22.4901L63.069 13.9698L69.702 6.6L69.699 6.5999C69.852 6.4513 69.742 6.1644 69.489 6.1644H66.399C66.164 6.1644 65.951 6.2534 65.802 6.4001L65.8 6.403C65.782 6.4203 65.766 6.4385 65.75 6.4574L59.002 13.8653Z" fill="white"/>
<path fill-rule="evenodd" clip-rule="evenodd" d="M85.194 15.0298V14.791C84.928 12.0887 82.569 9.875 79.694 9.875C76.64 9.875 74.169 12.3724 74.169 15.3C74.169 18.2058 76.603 20.6878 79.626 20.7246C81.416 20.7074 83.073 20.1524 84.703 19.0733L84.701 19.0715L87.759 16.9718L87.758 16.9698C91.721 14.2391 97.069 14.9816 99.711 18.7687C99.728 18.7935 99.744 18.8189 99.76 18.8449L99.79 18.8932L99.838 18.9718L99.839 18.9723L99.84 18.9737C99.914 19.0933 100.016 19.2579 100.086 19.3792C100.185 19.5484 100.328 19.8069 100.425 20.0921L100.453 20.1713C100.5 20.3046 100.456 20.392 100.32 20.4335L98.158 21.0968C98.038 21.1333 97.883 21.0663 97.815 20.9586L97.817 20.9662L97.819 20.9719L97.814 20.96L97.809 20.9479L97.804 20.9398L97.8 20.9305L97.796 20.9206C97.776 20.8796 97.747 20.8269 97.709 20.7608C97.667 20.6891 97.621 20.6132 97.568 20.5285L97.535 20.4758L97.49 20.4033L97.46 20.355L97.432 20.3086C95.769 17.9652 92.289 17.2999 89.473 19.131L89.475 19.1335L86.415 21.2339L86.416 21.2348C86.37 21.266 86.325 21.2969 86.279 21.3275L86.259 21.3409C84.253 22.6782 82.087 23.4425 79.694 23.474C79.67 23.474 79.647 23.4749 79.623 23.4747L79.54 23.475V23.4736C75.063 23.391 71.419 19.7218 71.419 15.3C71.419 10.8277 75.147 7.125 79.694 7.125C81.799 7.125 83.728 7.9187 85.194 9.215V1.5V0.5C85.194 0.2 85.394 0 85.694 0H87.694C87.994 0 88.194 0.2 88.194 0.5V1.5V13.1V15.3H88.192V15.5391C88.192 15.6592 88.107 15.7623 87.989 15.7847L85.49 16.2584C85.336 16.2875 85.193 16.1695 85.193 16.0127V15.0385C85.193 15.0355 85.193 15.0326 85.194 15.0298Z" fill="#00D3D3"/>
</svg>
