<svg width="89" height="103" viewBox="0 0 89 103" fill="none" xmlns="http://www.w3.org/2000/svg">
<path d="M28.1875 44.4984C28.1875 48.8247 29.9061 52.9739 32.9653 56.0331C36.0245 59.0923 40.1736 60.8109 44.5 60.8109C48.8263 60.8109 52.9755 59.0923 56.0347 56.0331C59.0938 52.9739 60.8125 48.8247 60.8125 44.4984C60.8125 40.1721 59.0938 36.0229 56.0347 32.9637C52.9755 29.9045 48.8263 28.1859 44.5 28.1859C40.1736 28.1859 36.0245 29.9045 32.9653 32.9637C29.9061 36.0229 28.1875 40.1721 28.1875 44.4984Z" fill="#00D3D3"/>
<path d="M75.2599 75.2583L52.1886 98.3296C50.1495 100.367 47.385 101.511 44.5027 101.511C41.6204 101.511 38.856 100.367 36.8168 98.3296L13.7401 75.2583C7.65672 69.1746 3.51397 61.4237 1.8357 52.9856C0.157421 44.5475 1.019 35.8012 4.31147 27.8527C7.60395 19.9043 13.1795 13.1107 20.3329 8.33091C27.4864 3.55117 35.8966 1 44.5 1C53.1034 1 61.5136 3.55117 68.6671 8.33091C75.8205 13.1107 81.3961 19.9043 84.6885 27.8527C87.981 35.8012 88.8426 44.5475 87.1643 52.9856C85.486 61.4237 81.3433 69.1746 75.2599 75.2583Z" fill="#00D3D3"/>
<path d="M28.1875 44.4984C28.1875 48.8247 29.9061 52.9739 32.9653 56.0331C36.0245 59.0923 40.1736 60.8109 44.5 60.8109C48.8263 60.8109 52.9755 59.0923 56.0347 56.0331C59.0938 52.9739 60.8125 48.8247 60.8125 44.4984C60.8125 40.1721 59.0938 36.0229 56.0347 32.9637C52.9755 29.9045 48.8263 28.1859 44.5 28.1859C40.1736 28.1859 36.0245 29.9045 32.9653 32.9637C29.9061 36.0229 28.1875 40.1721 28.1875 44.4984Z" stroke="#00D3D3" stroke-width="2" stroke-linecap="round" stroke-linejoin="round"/>
<path d="M75.2599 75.2583L52.1886 98.3296C50.1495 100.367 47.385 101.511 44.5027 101.511C41.6204 101.511 38.856 100.367 36.8168 98.3296L13.7401 75.2583C7.65672 69.1746 3.51397 61.4237 1.8357 52.9856C0.157421 44.5475 1.019 35.8012 4.31147 27.8527C7.60395 19.9043 13.1795 13.1107 20.3329 8.33091C27.4864 3.55117 35.8966 1 44.5 1C53.1034 1 61.5136 3.55117 68.6671 8.33091C75.8205 13.1107 81.3961 19.9043 84.6885 27.8527C87.981 35.8012 88.8426 44.5475 87.1643 52.9856C85.486 61.4237 81.3433 69.1746 75.2599 75.2583Z" stroke="#00D3D3" stroke-width="2" stroke-linecap="round" stroke-linejoin="round"/>
<circle cx="44.5" cy="44.5" r="16.3125" fill="#443F3F"/>
</svg>
