<svg width="108" height="86" viewBox="0 0 108 86" fill="none" xmlns="http://www.w3.org/2000/svg">
<path d="M5 32.1429H103M26.7778 59.2857H26.8322M48.5556 59.2857H59.4444M5 21.2857C5 16.9665 6.72083 12.8241 9.78392 9.76998C12.847 6.71581 17.0015 5 21.3333 5H86.6667C90.9985 5 95.153 6.71581 98.2161 9.76998C101.279 12.8241 103 16.9665 103 21.2857V64.7143C103 69.0335 101.279 73.1759 98.2161 76.23C95.153 79.2842 90.9985 81 86.6667 81H21.3333C17.0015 81 12.847 79.2842 9.78392 76.23C6.72083 73.1759 5 69.0335 5 64.7143V21.2857Z" stroke="#00D3D3" stroke-width="10" stroke-linecap="round" stroke-linejoin="round"/>
</svg>
