<svg width="108" height="108" viewBox="0 0 108 108" fill="none" xmlns="http://www.w3.org/2000/svg">
<path d="M5 97.5529C6.11314 99.2759 7.58706 100.672 9.29448 101.621C11.0019 102.569 12.8915 103.042 14.8 102.997C16.7085 103.042 18.5981 102.569 20.3055 101.621C22.0129 100.672 23.4869 99.2759 24.6 97.5529C25.7131 95.8298 27.1871 94.4337 28.8945 93.4851C30.6019 92.5366 32.4915 92.0641 34.4 92.1086C36.3085 92.0641 38.1981 92.5366 39.9055 93.4851C41.6129 94.4337 43.0869 95.8298 44.2 97.5529C45.3131 99.2759 46.7871 100.672 48.4945 101.621C50.2019 102.569 52.0915 103.042 54 102.997C55.9085 103.042 57.7981 102.569 59.5055 101.621C61.2129 100.672 62.6869 99.2759 63.8 97.5529C64.9131 95.8298 66.3871 94.4337 68.0945 93.4851C69.8019 92.5366 71.6915 92.0641 73.6 92.1086C75.5085 92.0641 77.3981 92.5366 79.1055 93.4851C80.8129 94.4337 82.2869 95.8298 83.4 97.5529C84.5131 99.2759 85.9871 100.672 87.6945 101.621C89.4019 102.569 91.2915 103.042 93.2 102.997C95.1085 103.042 96.9981 102.569 98.7055 101.621C100.413 100.672 101.887 99.2759 103 97.5529M14.8 86.6643L9.9 70.3314H98.1L93.2 86.6643M34.4 26.7771L24.6 53.9986M49.1 53.9986H83.4L49.1 5V53.9986Z" stroke="#00D3D3" stroke-width="10" stroke-linecap="round" stroke-linejoin="round"/>
</svg>
